<svg width="160" height="31" viewBox="0 0 160 31" fill="none" xmlns="http://www.w3.org/2000/svg">
<path d="M4.76243 9.19415L1.29883 6.96976L12.8442 0L24.3895 6.96976L20.7816 9.19415L12.8442 4.44878L4.76243 9.19415Z" fill="white"/>
<path d="M25.8326 9.49075L22.0804 11.7151V21.3542L14.2873 25.803V30.4L25.8326 23.5786V9.49075Z" fill="white"/>
<path d="M6.10352e-05 9.49075L3.7523 11.7151V21.3542L11.5454 25.803V30.4L6.10352e-05 23.5786V9.49075Z" fill="white"/>
<path d="M11.5452 8.30444L6.06116 11.5669V18.0918L11.5452 14.9776V8.30444Z" fill="white"/>
<path d="M14.143 8.30444L19.6271 11.5669V18.0918L14.143 14.9776V8.30444Z" fill="white"/>
<path d="M12.8441 17.2021L7.50439 20.3162L12.8441 23.8752L18.3282 20.3162L12.8441 17.2021Z" fill="white"/>
<path d="M50.9728 22.0767C50.9728 22.2738 50.9376 22.4567 50.8673 22.6256C50.7969 22.7945 50.6984 22.9423 50.5718 23.069C50.4522 23.1886 50.3079 23.2836 50.1391 23.354C49.9702 23.4243 49.7873 23.4595 49.5903 23.4595H39.6912C39.4379 23.4595 39.1636 23.4314 38.8681 23.3751C38.5796 23.3118 38.2911 23.2168 38.0027 23.0901C37.7213 22.9634 37.4504 22.8016 37.1901 22.6045C36.9298 22.4005 36.6976 22.1577 36.4935 21.8762C36.2965 21.5877 36.1382 21.2569 36.0186 20.884C35.899 20.504 35.8392 20.0782 35.8392 19.6067V12.1756C35.8392 11.9223 35.8674 11.6514 35.9237 11.3629C35.987 11.0673 36.082 10.7788 36.2086 10.4973C36.3352 10.2088 36.5006 9.93433 36.7046 9.67396C36.9086 9.41359 37.1514 9.18489 37.4328 8.98785C37.7213 8.78378 38.0519 8.62193 38.4248 8.5023C38.7977 8.38267 39.2198 8.32285 39.6912 8.32285H50.8462V11.0673H39.6912C39.3324 11.0673 39.058 11.1623 38.8681 11.3523C38.6781 11.5423 38.5831 11.8238 38.5831 12.1967V19.6067C38.5831 19.9586 38.6781 20.233 38.8681 20.4301C39.0651 20.6201 39.3394 20.7151 39.6912 20.7151H48.2289V17.274H40.926V14.5084H49.5903C49.7873 14.5084 49.9702 14.5471 50.1391 14.6245C50.3079 14.6949 50.4522 14.7934 50.5718 14.9201C50.6984 15.0467 50.7969 15.1945 50.8673 15.3634C50.9376 15.5253 50.9728 15.7012 50.9728 15.8912V22.0767Z" fill="white"/>
<path d="M68.6814 23.4595H65.9375V19.744H56.2917V23.4595H53.5478V15.8912C53.5478 14.7864 53.7378 13.7695 54.1177 12.8406C54.4976 11.9117 55.0253 11.113 55.7007 10.4445C56.3762 9.776 57.1747 9.25526 58.0964 8.8823C59.018 8.50933 60.0241 8.32285 61.1146 8.32285H67.2989C67.4889 8.32285 67.6683 8.35804 67.8371 8.42841C68.006 8.49878 68.1537 8.5973 68.2804 8.72396C68.407 8.85063 68.5055 8.99841 68.5759 9.1673C68.6462 9.33619 68.6814 9.51563 68.6814 9.70563V23.4595ZM56.2917 16.9995H65.9375V11.0673H61.1146C61.0302 11.0673 60.8508 11.0814 60.5764 11.1095C60.3091 11.1306 59.996 11.1904 59.6372 11.289C59.2854 11.3875 58.9125 11.5388 58.5185 11.7429C58.1245 11.9469 57.7622 12.2284 57.4315 12.5873C57.1008 12.9462 56.8264 13.3966 56.6083 13.9384C56.3973 14.4732 56.2917 15.1242 56.2917 15.8912V16.9995Z" fill="white"/>
<path d="M89.4927 23.4595H86.7277V14.4451L81.8626 23.0056C81.743 23.2238 81.5742 23.3892 81.3561 23.5018C81.145 23.6143 80.9163 23.6706 80.6701 23.6706C80.4309 23.6706 80.2057 23.6143 79.9947 23.5018C79.7906 23.3892 79.6288 23.2238 79.5092 23.0056L74.623 14.4451V23.4595H71.8791V9.49452C71.8791 9.17785 71.9706 8.89637 72.1535 8.65007C72.3434 8.40378 72.5897 8.23841 72.8922 8.15396C73.04 8.11878 73.1877 8.10822 73.3355 8.1223C73.4832 8.12933 73.6239 8.161 73.7576 8.2173C73.8983 8.26656 74.025 8.34045 74.1375 8.43896C74.2501 8.53045 74.3451 8.64304 74.4225 8.77674L80.6701 19.6384L86.9177 8.77674C87.0795 8.50933 87.3011 8.31933 87.5826 8.20674C87.871 8.09415 88.17 8.07656 88.4796 8.15396C88.7751 8.23841 89.0178 8.40378 89.2078 8.65007C89.3977 8.89637 89.4927 9.17785 89.4927 9.49452V23.4595Z" fill="white"/>
<path d="M105.133 17.274H96.4685V14.5084H105.133V17.274ZM106.368 23.4595H96.4685C96.0886 23.4595 95.6735 23.3927 95.2232 23.259C94.7729 23.1253 94.3543 22.9071 93.9674 22.6045C93.5874 22.2949 93.2673 21.8973 93.007 21.4117C92.7537 20.9192 92.6271 20.3175 92.6271 19.6067V9.70563C92.6271 9.51563 92.6623 9.33619 92.7326 9.1673C92.803 8.99841 92.898 8.85063 93.0176 8.72396C93.1442 8.5973 93.2919 8.49878 93.4608 8.42841C93.6297 8.35804 93.8126 8.32285 94.0096 8.32285H106.368V11.0673H95.371V19.6067C95.371 19.9656 95.466 20.2401 95.6559 20.4301C95.8459 20.6201 96.1238 20.7151 96.4896 20.7151H106.368V23.4595Z" fill="white"/>
<path d="M124.129 20.1345C124.129 20.4723 124.069 20.8347 123.95 21.2217C123.837 21.6088 123.647 21.9677 123.38 22.2984C123.119 22.6292 122.778 22.9071 122.356 23.1323C121.934 23.3505 121.417 23.4595 120.805 23.4595H110.388C110.191 23.4595 110.009 23.4243 109.84 23.354C109.671 23.2836 109.523 23.1886 109.396 23.069C109.277 22.9423 109.182 22.7945 109.111 22.6256C109.041 22.4567 109.006 22.2738 109.006 22.0767V9.70563C109.006 9.51563 109.041 9.33619 109.111 9.1673C109.182 8.99841 109.277 8.85063 109.396 8.72396C109.523 8.5973 109.671 8.49878 109.84 8.42841C110.009 8.35804 110.191 8.32285 110.388 8.32285H119.57C119.908 8.32285 120.27 8.38267 120.657 8.5023C121.044 8.62193 121.403 8.81545 121.733 9.08285C122.071 9.34322 122.349 9.68452 122.567 10.1067C122.792 10.529 122.905 11.0462 122.905 11.6584V12.1756C122.905 12.6612 122.824 13.1854 122.662 13.7484C122.5 14.3043 122.24 14.8321 121.881 15.3317C122.191 15.5217 122.479 15.7505 122.746 16.0179C123.021 16.2853 123.26 16.5949 123.464 16.9467C123.668 17.2986 123.83 17.6962 123.95 18.1395C124.069 18.5829 124.129 19.0719 124.129 19.6067V20.1345ZM121.385 19.6067C121.385 19.2479 121.329 18.9277 121.216 18.6462C121.104 18.3577 120.945 18.1114 120.741 17.9073C120.537 17.7032 120.291 17.5484 120.003 17.4429C119.714 17.3303 119.391 17.274 119.032 17.274H112.847V14.5084H117.797C118.156 14.5084 118.479 14.4556 118.768 14.3501C119.056 14.2375 119.303 14.0792 119.507 13.8751C119.711 13.671 119.865 13.4282 119.971 13.1467C120.084 12.8582 120.14 12.5345 120.14 12.1756V11.6584C120.14 11.2643 119.95 11.0673 119.57 11.0673H111.75V20.7151H120.805C120.854 20.7151 120.914 20.7116 120.984 20.7045C121.054 20.6975 121.118 20.6764 121.174 20.6412C121.23 20.606 121.28 20.5462 121.322 20.4617C121.364 20.3773 121.385 20.2612 121.385 20.1134V19.6067Z" fill="white"/>
<path d="M142.407 17.3373C142.407 18.2592 142.249 19.1071 141.933 19.8812C141.616 20.6553 141.176 21.3238 140.613 21.8868C140.051 22.4497 139.382 22.8895 138.608 23.2062C137.841 23.5158 137.004 23.6706 136.097 23.6706H132.382C131.474 23.6706 130.633 23.5158 129.859 23.2062C129.086 22.8895 128.417 22.4497 127.854 21.8868C127.291 21.3238 126.848 20.6553 126.525 19.8812C126.208 19.1071 126.05 18.2592 126.05 17.3373V14.4451C126.05 13.5303 126.208 12.6858 126.525 11.9117C126.848 11.1306 127.291 10.4621 127.854 9.90619C128.417 9.34322 129.086 8.90341 129.859 8.58674C130.633 8.27007 131.474 8.11174 132.382 8.11174H136.097C137.004 8.11174 137.841 8.27007 138.608 8.58674C139.382 8.90341 140.051 9.34322 140.613 9.90619C141.176 10.4621 141.616 11.1306 141.933 11.9117C142.249 12.6858 142.407 13.5303 142.407 14.4451V17.3373ZM139.664 14.4451C139.664 13.9032 139.576 13.4142 139.4 12.9779C139.231 12.5345 138.988 12.158 138.672 11.8484C138.362 11.5317 137.986 11.289 137.542 11.1201C137.106 10.9442 136.624 10.8562 136.097 10.8562H132.382C131.847 10.8562 131.358 10.9442 130.915 11.1201C130.479 11.289 130.102 11.5317 129.786 11.8484C129.469 12.158 129.223 12.5345 129.047 12.9779C128.878 13.4142 128.794 13.9032 128.794 14.4451V17.3373C128.794 17.8792 128.878 18.3717 129.047 18.8151C129.223 19.2514 129.469 19.6279 129.786 19.9445C130.102 20.2542 130.479 20.4969 130.915 20.6729C131.358 20.8417 131.847 20.9262 132.382 20.9262H136.075C136.61 20.9262 137.096 20.8417 137.532 20.6729C137.975 20.4969 138.355 20.2542 138.672 19.9445C138.988 19.6279 139.231 19.2514 139.4 18.8151C139.576 18.3717 139.664 17.8792 139.664 17.3373V14.4451Z" fill="white"/>
<path d="M151.631 13.7273L156.254 8.32285H160L153.489 15.9123L159.958 23.4595H156.232L151.631 18.0973L147.051 23.4595H143.315L149.774 15.9123L143.294 8.32285H147.009L151.631 13.7273Z" fill="white"/>
</svg>
